<?xml version="1.0" standalone="no"?><!DOCTYPE svg PUBLIC "-//W3C//DTD SVG 1.1//EN" "http://www.w3.org/Graphics/SVG/1.1/DTD/svg11.dtd"><svg t="1592659184041" class="icon" viewBox="0 0 1024 1024" version="1.1" xmlns="http://www.w3.org/2000/svg" p-id="2204" xmlns:xlink="http://www.w3.org/1999/xlink" width="200" height="200"><defs><style type="text/css"></style></defs><path d="M957.11786667 78.6144H65.98933333c-18.37866667 0-33.23733333 14.90026667-33.23733333 33.26933333v770.40533334c0 18.4 14.8576 33.27893333 33.23733333 33.27893333H248.56533333c18.35733333 0 33.2352-14.87893333 33.2352-33.27893333v-60.26026667c0-16.608 13.5552-30.1632 30.2048-30.1632 16.65066667 0 30.2048 13.5552 30.2048 30.1632v60.26026667c0 18.4 14.87893333 33.27893333 33.23733334 33.27893333h272.1888c18.37866667 0 33.2576-14.87893333 33.2576-33.27893333v-60.26026667c0-16.608 13.5552-30.1632 30.18346666-30.1632 16.65066667 0 30.2048 13.5552 30.2048 30.1632v60.26026667c0 18.4 14.8992 33.27893333 33.25866667 33.27893333h182.57706667c18.37866667 0 33.2576-14.87893333 33.2576-33.27893333V111.88373333c0-18.36906667-14.87893333-33.26933333-33.25866667-33.26933333M923.86133333 849.05173333H807.776V822.02666667c0-53.3024-43.376-96.69973333-96.69973333-96.69973334-53.30133333 0-96.69973333 43.39733333-96.69973334 96.69973334v27.024H408.70613333V822.02666667c0-53.3024-43.376-96.69973333-96.69973333-96.69973334-53.36533333 0-96.69866667 43.39733333-96.69866667 96.69973334v27.024H99.2256V145.15093333h824.63466667v703.9008zM268.50133333 388.14826667c0 8.2816 6.3616 15.10293333 14.2592 15.10293333 0.064 0 0.14933333-0.04266667 0.256-0.04266667 2.94613333 39.78666667 34.26133333 79.6288 72.55786667 79.6288 38.27413333 0 69.6096-39.84106667 72.5568-79.6288 0.08533333 0 0.128 0.04266667 0.23466667 0.04266667 7.91893333 0 14.23786667-6.82133333 14.23786666-15.104 0-6.1568-3.45813333-11.42933333-8.432-13.7888a92.74986667 92.74986667 0 0 0 4.4608-28.48533333c0-48.62933333-37.18506667-88.10773333-83.05813333-88.10773334s-83.10186667 39.47946667-83.10186667 88.10666667c0 9.9904 1.57866667 19.52 4.43946667 28.4864-4.90986667 2.35946667-8.41066667 7.63306667-8.41066667 13.78986667M179.06133333 623.97546667h353.00586667a7.69813333 7.69813333 0 0 0 7.72693333-7.72693334v-27.64373333c0-2.11413333-0.85333333-4.11946667-2.34666666-5.5936-33.92-32.93866667-75.33226667-56.1664-119.88266667-67.27786667-1.17333333-0.58666667-2.36906667-0.93973333-3.6928-0.93973333h-4.05546667c-1.28 0-2.51946667 0.3104-3.62986666 0.93866667-13.49013333 7.18506667-31.93386667 11.32586667-50.6112 11.32586666s-37.18506667-4.1408-50.61333334-11.36746666a7.984 7.984 0 0 0-3.67253333-0.89706667h-2.92373333c-0.576 0-1.21706667 0.04266667-1.81333334 0.2048-45.66186667 10.8224-88.1184 34.35093333-122.8928 68.01386667-1.51466667 1.47413333-2.32533333 3.48053333-2.32533333 5.5936v27.64373333a7.69813333 7.69813333 0 0 0 7.72693333 7.72586667m412.49813334-114.8384H839.02933333c7.344 0 13.2992-5.98613333 13.2992-13.33013334 0-7.30026667-5.9552-13.30026667-13.2992-13.30026666H591.55946667c-7.344 0-13.2992 5.99893333-13.2992 13.30133333 0 7.34293333 5.9552 13.32906667 13.2992 13.32906667m0-105.1584H839.02933333c7.344 0 13.2992-5.94666667 13.2992-13.31093334 0-7.34293333-5.9552-13.2864-13.2992-13.2864H591.55946667c-7.344 0-13.2992 5.94346667-13.2992 13.2864 0 7.36426667 5.9552 13.31093333 13.2992 13.31093334" p-id="2205" fill="#1296db"></path></svg>