<?xml version="1.0" standalone="no"?><!DOCTYPE svg PUBLIC "-//W3C//DTD SVG 1.1//EN" "http://www.w3.org/Graphics/SVG/1.1/DTD/svg11.dtd"><svg t="1592666643222" class="icon" viewBox="0 0 1024 1024" version="1.1" xmlns="http://www.w3.org/2000/svg" p-id="1317" xmlns:xlink="http://www.w3.org/1999/xlink" width="200" height="200"><defs><style type="text/css"></style></defs><path d="M70.457806 45.980903h873.923441c38.801892 0 70.457806 31.644903 70.457807 70.457807v781.972645c0 38.801892-31.655914 70.446796-70.457807 70.446796H70.457806C31.644903 968.858151 0 937.213247 0 898.411355V116.43871C0 77.625806 31.644903 45.980903 70.457806 45.980903z m21.724216 88.537463a4.712602 4.712602 0 0 0-4.701592 4.701591v606.989763c0 2.598538 2.114065 4.701591 4.701592 4.701592h831.763268a4.712602 4.712602 0 0 0 4.701592-4.701592V139.219957a4.712602 4.712602 0 0 0-4.701592-4.701591H92.182022z m226.403096 72.373677a72.362667 72.362667 0 1 1 0 144.725333 72.362667 72.362667 0 0 1 0-144.725333zM137.392172 568.209892c50.550366-19.75329 70.997333-29.927226 105.659183-57.927569 65.921376-53.259011 124.795871-79.673806 206.022193-23.375828 70.986323 49.196043 95.08886 78.572731 148.193721-8.324129 88.757677-145.26486 249.547699-98.039742 285.806107 65.205677 4.767656 21.470968 4.646538 35.498667 4.646538 57.432086v83.637677a23.540989 23.540989 0 0 1-23.485936 23.485936H155.185548a23.540989 23.540989 0 0 1-23.485935-23.485936v-106.925419c0-7.035871-1.156129-7.046882 5.692559-9.722495z" fill="#1296db" p-id="1318"></path></svg>