<?xml version="1.0" standalone="no"?><!DOCTYPE svg PUBLIC "-//W3C//DTD SVG 1.1//EN" "http://www.w3.org/Graphics/SVG/1.1/DTD/svg11.dtd"><svg t="1592659162924" class="icon" viewBox="0 0 1024 1024" version="1.1" xmlns="http://www.w3.org/2000/svg" p-id="1972" xmlns:xlink="http://www.w3.org/1999/xlink" width="200" height="200"><defs><style type="text/css"></style></defs><path d="M268.8 537.6c-1.706667 0-4.266667-0.853333-5.973333-1.706667-5.973333-4.266667-11.946667-8.533333-17.066667-13.653333-23.04-23.04-34.986667-52.906667-34.986667-85.333333s12.8-62.293333 34.986667-85.333334c23.04-23.04 52.906667-34.986667 85.333333-34.986666 5.973333 0 10.24 4.266667 10.24 10.24s-4.266667 10.24-10.24 10.24c-26.453333 0-52.053333 10.24-70.826666 29.013333-18.773333 18.773333-29.013333 44.373333-29.013334 70.826667s10.24 52.053333 29.013334 70.826666c4.266667 4.266667 8.533333 8.533333 13.653333 11.946667 2.56 1.706667 3.413333 4.266667 4.266667 6.826667 0.853333 2.56 0 5.12-1.706667 7.68-0.853333 1.706667-4.266667 3.413333-7.68 3.413333z" p-id="1973"></path><path d="M715.946667 968.533333c-40.106667 0-79.36-10.24-114.346667-29.013333H69.12V847.36c0-47.786667 38.4-86.186667 86.186667-86.186667h94.72V622.08C179.2 591.36 131.413333 522.24 128 445.44c-2.56-53.76 16.213333-105.813333 52.906667-145.92 19.626667-21.333333 42.666667-38.4 69.12-49.493333V115.2c0-34.133333 27.306667-61.44 61.44-61.44h354.986666v1.706667l0.853334-1.706667c0.853333 0 1.706667 0 2.56 0.853333h0.853333c0.853333 0.853333 2.56 0.853333 3.413333 1.706667l167.253334 168.96c1.706667 1.706667 2.56 4.266667 2.56 6.826667v291.84c69.973333 44.373333 111.786667 120.32 111.786666 203.093333 0.853333 133.973333-106.666667 241.493333-239.786666 241.493333z m0-460.8c-121.173333 0-220.16 98.986667-220.16 220.16s98.986667 220.16 220.16 220.16 220.16-98.986667 220.16-220.16-98.133333-220.16-220.16-220.16z m-145.066667 412.16c-13.653333-10.24-26.453333-22.186667-37.546667-35.84h-443.733333v35.84h481.28z m-53.76-56.32c-17.066667-24.746667-29.013333-52.906667-35.84-81.92H155.306667c-36.693333 0-65.706667 29.866667-65.706667 65.706667v16.213333h427.52z m-39.253333-102.4c-1.706667-11.093333-2.56-22.186667-2.56-33.28 0-132.266667 108.373333-240.64 240.64-240.64 37.546667 0 75.093333 8.533333 108.373333 25.6V243.2H718.506667c-34.133333 0-61.44-27.306667-61.44-61.44V74.24H312.32c-22.186667 0-40.96 18.773333-40.96 40.96v127.146667c16.213333-5.12 33.28-7.68 51.2-8.533334h9.386667c108.373333 0 197.12 85.333333 202.24 193.706667 3.413333 82.773333-44.373333 160.426667-120.32 194.56v139.946667H477.866667z m-84.48 0V628.906667c-17.066667 5.973333-34.986667 8.533333-52.906667 9.386666h-9.386667c-20.48 0-40.96-3.413333-60.586666-9.386666v131.413333h122.88z m-61.44-507.733333h-8.533334c-48.64 2.56-93.866667 23.04-126.293333 58.88s-49.493333 82.773333-47.786667 131.413333c2.56 48.64 23.04 93.866667 58.88 126.293334 13.653333 11.946667 28.16 22.186667 44.373334 29.866666 5.12 2.56 11.093333 5.12 17.066666 6.826667 19.626667 6.826667 40.106667 10.24 61.44 10.24h8.533334c18.773333-0.853333 37.546667-4.266667 55.466666-11.093333 5.973333-1.706667 11.093333-4.266667 17.066667-7.68 64.853333-32.426667 104.96-99.84 102.4-172.373334-5.12-95.573333-85.333333-172.373333-182.613333-172.373333z m345.6-71.68c0 22.186667 18.773333 40.96 40.96 40.96h90.453333L677.546667 88.746667v93.013333z" p-id="1974"></path><path d="M842.24 841.386667c-2.56 0-4.266667-0.853333-6.826667-2.56-1.706667-1.706667-3.413333-4.266667-3.413333-6.826667 0-2.56 0.853333-5.12 2.56-7.68 40.106667-48.64 46.08-118.613333 14.506667-173.226667-27.306667-46.933333-77.653333-75.946667-132.266667-75.946666-8.533333 0-16.213333 0.853333-24.746667 1.706666h-1.706666c-5.12 0-9.386667-3.413333-10.24-8.533333-0.853333-5.973333 2.56-11.093333 8.533333-11.946667 9.386667-1.706667 18.773333-2.56 27.306667-2.56 62.293333 0 119.466667 33.28 150.186666 86.186667 35.84 62.293333 29.013333 140.8-16.213333 196.266667-1.706667 4.266667-4.266667 5.12-7.68 5.12zM716.8 901.12c-62.293333 0-119.466667-33.28-150.186667-86.186667-35.84-62.293333-29.013333-140.8 16.213334-196.266666 1.706667-2.56 5.12-3.413333 7.68-3.413334 2.56 0 4.266667 0.853333 6.826666 2.56 1.706667 1.706667 3.413333 4.266667 3.413334 6.826667 0 2.56-0.853333 5.12-2.56 7.68-40.106667 48.64-46.08 118.613333-14.506667 173.226667 27.306667 46.933333 77.653333 75.946667 132.266667 75.946666 8.533333 0 16.213333-0.853333 24.746666-1.706666h1.706667c5.12 0 9.386667 3.413333 10.24 8.533333 0.853333 5.973333-2.56 11.093333-8.533333 11.946667-9.386667 0.853333-17.92 0.853333-27.306667 0.853333z" p-id="1975"></path><path d="M661.333333 824.32c-2.56 0-4.266667-0.853333-5.973333-1.706667-3.413333-2.56-5.12-5.973333-4.266667-10.24l9.386667-57.173333-41.813333-40.106667c-2.56-2.56-4.266667-6.826667-2.56-10.24 0.853333-3.413333 4.266667-6.826667 8.533333-6.826666l57.173333-8.533334 24.746667-52.053333c1.706667-3.413333 5.12-5.973333 9.386667-5.973333 4.266667 0 7.68 2.56 9.386666 5.973333l25.6 51.2 57.173334 7.68c4.266667 0.853333 6.826667 3.413333 8.533333 6.826667 0.853333 3.413333 0 7.68-2.56 10.24l-40.96 40.96 10.24 57.173333c0.853333 4.266667-0.853333 7.68-4.266667 10.24-1.706667 1.706667-4.266667 1.706667-5.973333 1.706667-1.706667 0-3.413333 0-4.266667-0.853334l-51.2-26.453333-51.2 27.306667c-1.706667 0.853333-3.413333 0.853333-5.12 0.853333z m17.066667-79.36c2.56 2.56 3.413333 5.973333 3.413333 9.386667l-6.826666 41.813333 37.546666-19.626667c1.706667-0.853333 3.413333-0.853333 5.12-0.853333 1.706667 0 3.413333 0 5.12 0.853333l37.546667 19.626667-7.68-41.813333c-0.853333-3.413333 0.853333-6.826667 2.56-9.386667l29.866667-29.866667-42.666667-6.826666c-3.413333-0.853333-5.973333-2.56-7.68-5.12L715.946667 665.6l-18.773334 38.4c-1.706667 3.413333-4.266667 5.12-7.68 5.973333l-41.813333 6.826667 30.72 28.16z" p-id="1976"></path></svg>